<?xml version="1.0" standalone="no"?>
<!DOCTYPE svg PUBLIC "-//W3C//DTD SVG 20010904//EN"
 "http://www.w3.org/TR/2001/REC-SVG-20010904/DTD/svg10.dtd">
<svg version="1.0" xmlns="http://www.w3.org/2000/svg"
 width="404.000000pt" height="382.000000pt" viewBox="0 0 404.000000 382.000000"
 preserveAspectRatio="xMidYMid meet">

<g transform="translate(0.000000,382.000000) scale(0.100000,-0.100000)"
fill="#000000" stroke="none">
<path d="M1791 3735 c-206 -45 -363 -134 -504 -285 l-75 -82 -124 11 c-216 18
-379 -9 -543 -88 -174 -85 -296 -206 -385 -383 -71 -142 -94 -252 -87 -416 3
-70 13 -154 22 -187 45 -161 159 -334 283 -426 92 -68 228 -134 344 -166 l97
-27 15 -65 c40 -180 55 -365 65 -807 7 -286 13 -378 24 -405 l14 -35 -116 -16
c-99 -14 -320 -73 -310 -83 2 -1 45 8 94 20 135 34 241 44 568 51 l297 7 0
621 -1 621 -32 20 c-19 12 -43 43 -59 74 l-28 55 0 363 0 363 30 0 30 0 0
-265 c0 -229 2 -265 15 -265 13 0 15 36 15 265 l0 265 35 0 35 0 0 -265 c0
-258 1 -265 20 -265 19 0 20 7 20 265 l0 265 30 0 30 0 0 -265 c0 -258 1 -265
20 -265 19 0 20 7 20 265 l0 265 35 0 35 0 0 -312 c0 -172 -5 -342 -11 -378
-12 -76 -47 -142 -89 -167 l-30 -17 0 -623 0 -623 295 0 295 0 0 564 0 564
-37 7 c-152 27 -249 143 -275 324 -35 252 128 643 309 739 33 18 104 14 138
-6 177 -109 326 -488 294 -745 -21 -165 -125 -285 -271 -312 l-38 -7 0 -564 0
-564 325 0 c212 0 332 4 348 11 54 24 60 54 69 314 11 368 46 822 71 950 l12
59 93 27 c157 45 305 125 406 218 64 60 152 185 185 266 43 103 62 197 62 314
0 338 -184 643 -476 787 -186 91 -355 110 -646 71 -8 -1 -35 23 -60 53 -133
163 -340 280 -559 316 -106 17 -255 17 -339 -1z"/>
<path d="M1963 2128 c-24 -74 -27 -98 -27 -218 -1 -121 1 -140 23 -188 37 -83
140 -162 210 -162 21 0 11 28 -12 34 -43 10 -103 73 -133 138 l-29 63 0 208
c0 114 -1 207 -2 207 -1 0 -14 -37 -30 -82z"/>
<path d="M3443 538 c-6 -7 -13 -36 -16 -65 -16 -137 -129 -234 -317 -269 -184
-35 -628 -28 -1070 16 -410 41 -542 51 -765 57 -317 8 -538 -12 -700 -63 -69
-22 -205 -85 -205 -96 0 -13 18 -10 58 11 59 30 199 69 312 88 80 13 169 17
370 17 268 0 436 -9 790 -44 525 -52 564 -54 885 -54 353 0 396 5 521 64 70
34 139 103 174 174 20 43 30 142 15 165 -9 15 -40 14 -52 -1z"/>
<path d="M3566 434 c-9 -8 -16 -25 -16 -37 0 -35 -55 -139 -91 -174 -19 -17
-50 -41 -69 -53 -28 -17 -30 -20 -10 -15 42 12 118 65 155 108 45 53 79 141
65 168 -13 23 -14 23 -34 3z"/>
</g>
</svg>
